<?xml version="1.0" encoding="UTF-8" standalone="no"?>
<!DOCTYPE svg PUBLIC "-//W3C//DTD SVG 1.1//EN"
 "http://www.w3.org/Graphics/SVG/1.1/DTD/svg11.dtd">
<!-- Generated by graphviz version 5.0.0 (20220707.1540)
 -->
<!-- Title: dependencies Pages: 1 -->
<svg width="1104pt" height="250pt"
 viewBox="0.00 0.00 1104.00 249.80" xmlns="http://www.w3.org/2000/svg" xmlns:xlink="http://www.w3.org/1999/xlink">
<g id="graph0" class="graph" transform="scale(1 1) rotate(0) translate(4 245.8)">
<title>dependencies</title>
<polygon fill="white" stroke="transparent" points="-4,4 -4,-245.8 1100,-245.8 1100,4 -4,4"/>
<text text-anchor="middle" x="548" y="-8.2" font-family="sans-serif" font-size="14.00">dependencies</text>
<g id="clust1" class="cluster">
<title>cluster_AppModule</title>
<polygon fill="none" stroke="black" stroke-dasharray="1,5" points="294,-108.8 294,-233.8 883,-233.8 883,-108.8 294,-108.8"/>
</g>
<g id="clust3" class="cluster">
<title>cluster_AppModule_imports</title>
<polygon fill="none" stroke="black" points="440,-116.8 440,-168.8 875,-168.8 875,-116.8 440,-116.8"/>
</g>
<g id="clust6" class="cluster">
<title>cluster_AppModule_providers</title>
<polygon fill="none" stroke="black" points="302,-116.8 302,-168.8 432,-168.8 432,-116.8 302,-116.8"/>
</g>
<g id="clust7" class="cluster">
<title>cluster_AuthModule</title>
<polygon fill="none" stroke="black" stroke-dasharray="1,5" points="8,-32.8 8,-100.8 650,-100.8 650,-32.8 8,-32.8"/>
</g>
<g id="clust10" class="cluster">
<title>cluster_AuthModule_exports</title>
<polygon fill="none" stroke="black" points="16,-40.8 16,-92.8 226,-92.8 226,-40.8 16,-40.8"/>
</g>
<g id="clust12" class="cluster">
<title>cluster_AuthModule_providers</title>
<polygon fill="none" stroke="black" points="234,-40.8 234,-92.8 642,-92.8 642,-40.8 234,-40.8"/>
</g>
<g id="clust13" class="cluster">
<title>cluster_CaslModule</title>
<polygon fill="none" stroke="black" stroke-dasharray="1,5" points="658,-32.8 658,-100.8 918,-100.8 918,-32.8 658,-32.8"/>
</g>
<g id="clust16" class="cluster">
<title>cluster_CaslModule_exports</title>
<polygon fill="none" stroke="black" points="806,-40.8 806,-92.8 910,-92.8 910,-40.8 806,-40.8"/>
</g>
<g id="clust18" class="cluster">
<title>cluster_CaslModule_providers</title>
<polygon fill="none" stroke="black" points="666,-40.8 666,-92.8 798,-92.8 798,-40.8 666,-40.8"/>
</g>
<g id="clust19" class="cluster">
<title>cluster_FoldersModule</title>
<polygon fill="none" stroke="black" stroke-dasharray="1,5" points="926,-32.8 926,-100.8 1088,-100.8 1088,-32.8 926,-32.8"/>
</g>
<g id="clust24" class="cluster">
<title>cluster_FoldersModule_providers</title>
<polygon fill="none" stroke="black" points="934,-40.8 934,-92.8 1080,-92.8 1080,-40.8 934,-40.8"/>
</g>
<!-- AuthModule -->
<g id="node1" class="node">
<title>AuthModule</title>
<polygon fill="#8dd3c7" stroke="black" points="535.55,-160.8 532.55,-164.8 511.55,-164.8 508.55,-160.8 448.45,-160.8 448.45,-124.8 535.55,-124.8 535.55,-160.8"/>
<text text-anchor="middle" x="492" y="-138.6" font-family="Times,serif" font-size="14.00">AuthModule</text>
</g>
<!-- AppModule -->
<g id="node5" class="node">
<title>AppModule</title>
<polygon fill="#8dd3c7" stroke="black" points="640.66,-225.8 637.66,-229.8 616.66,-229.8 613.66,-225.8 557.34,-225.8 557.34,-189.8 640.66,-189.8 640.66,-225.8"/>
<text text-anchor="middle" x="599" y="-203.6" font-family="Times,serif" font-size="14.00">AppModule</text>
</g>
<!-- AuthModule&#45;&gt;AppModule -->
<g id="edge1" class="edge">
<title>AuthModule&#45;&gt;AppModule</title>
<path fill="none" stroke="black" d="M492,-160.82C492,-178.17 492,-201.8 492,-201.8 492,-201.8 547.32,-201.8 547.32,-201.8"/>
<polygon fill="black" stroke="black" points="547.32,-205.3 557.32,-201.8 547.32,-198.3 547.32,-205.3"/>
</g>
<!-- AuthService  -->
<g id="node7" class="node">
<title>AuthService </title>
<polygon fill="#fb8072" stroke="black" points="217.98,-84.8 128.02,-84.8 128.02,-48.8 217.98,-48.8 217.98,-84.8"/>
<text text-anchor="middle" x="173" y="-62.6" font-family="Times,serif" font-size="14.00">AuthService </text>
</g>
<!-- AuthModule&#45;&gt;AuthService  -->
<g id="edge6" class="edge">
<title>AuthModule&#45;&gt;AuthService </title>
<path fill="none" stroke="black" stroke-dasharray="5,2" d="M465.86,-124.74C465.86,-113.36 465.86,-100.8 465.86,-100.8 465.86,-100.8 173,-100.8 173,-100.8 173,-100.8 173,-94.99 173,-94.99"/>
<polygon fill="black" stroke="black" points="176.5,-94.99 173,-84.99 169.5,-94.99 176.5,-94.99"/>
</g>
<!-- JwtStrategy  -->
<g id="node8" class="node">
<title>JwtStrategy </title>
<polygon fill="#fb8072" stroke="black" points="109.6,-84.8 24.4,-84.8 24.4,-48.8 109.6,-48.8 109.6,-84.8"/>
<text text-anchor="middle" x="67" y="-62.6" font-family="Times,serif" font-size="14.00">JwtStrategy </text>
</g>
<!-- AuthModule&#45;&gt;JwtStrategy  -->
<g id="edge7" class="edge">
<title>AuthModule&#45;&gt;JwtStrategy </title>
<path fill="none" stroke="black" stroke-dasharray="5,2" d="M457.04,-124.61C457.04,-116.52 457.04,-108.8 457.04,-108.8 457.04,-108.8 67,-108.8 67,-108.8 67,-108.8 67,-94.86 67,-94.86"/>
<polygon fill="black" stroke="black" points="70.5,-94.86 67,-84.86 63.5,-94.86 70.5,-94.86"/>
</g>
<!-- CaslModule -->
<g id="node2" class="node">
<title>CaslModule</title>
<polygon fill="#8dd3c7" stroke="black" points="747.44,-160.8 744.44,-164.8 723.44,-164.8 720.44,-160.8 662.56,-160.8 662.56,-124.8 747.44,-124.8 747.44,-160.8"/>
<text text-anchor="middle" x="705" y="-138.6" font-family="Times,serif" font-size="14.00">CaslModule</text>
</g>
<!-- CaslModule&#45;&gt;AppModule -->
<g id="edge2" class="edge">
<title>CaslModule&#45;&gt;AppModule</title>
<path fill="none" stroke="black" d="M705,-160.82C705,-178.17 705,-201.8 705,-201.8 705,-201.8 650.89,-201.8 650.89,-201.8"/>
<polygon fill="black" stroke="black" points="650.89,-198.3 640.89,-201.8 650.89,-205.3 650.89,-198.3"/>
</g>
<!-- CaslFactory  -->
<g id="node12" class="node">
<title>CaslFactory </title>
<polygon fill="#fb8072" stroke="black" points="901.66,-84.8 814.34,-84.8 814.34,-48.8 901.66,-48.8 901.66,-84.8"/>
<text text-anchor="middle" x="858" y="-62.6" font-family="Times,serif" font-size="14.00">CaslFactory </text>
</g>
<!-- CaslModule&#45;&gt;CaslFactory  -->
<g id="edge11" class="edge">
<title>CaslModule&#45;&gt;CaslFactory </title>
<path fill="none" stroke="black" stroke-dasharray="5,2" d="M722.91,-124.74C722.91,-120.31 722.91,-116.8 722.91,-116.8 722.91,-116.8 840.6,-116.8 840.6,-116.8 840.6,-116.8 840.6,-94.85 840.6,-94.85"/>
<polygon fill="black" stroke="black" points="844.1,-94.85 840.6,-84.85 837.1,-94.85 844.1,-94.85"/>
</g>
<!-- FoldersModule -->
<g id="node3" class="node">
<title>FoldersModule</title>
<polygon fill="#8dd3c7" stroke="black" points="866.55,-160.8 863.55,-164.8 842.55,-164.8 839.55,-160.8 765.45,-160.8 765.45,-124.8 866.55,-124.8 866.55,-160.8"/>
<text text-anchor="middle" x="816" y="-138.6" font-family="Times,serif" font-size="14.00">FoldersModule</text>
</g>
<!-- FoldersModule&#45;&gt;AppModule -->
<g id="edge3" class="edge">
<title>FoldersModule&#45;&gt;AppModule</title>
<path fill="none" stroke="black" d="M816,-161.08C816,-182.12 816,-213.8 816,-213.8 816,-213.8 650.84,-213.8 650.84,-213.8"/>
<polygon fill="black" stroke="black" points="650.84,-210.3 640.84,-213.8 650.84,-217.3 650.84,-210.3"/>
</g>
<!-- UsersModule -->
<g id="node4" class="node">
<title>UsersModule</title>
<polygon fill="#8dd3c7" stroke="black" points="644.94,-160.8 641.94,-164.8 620.94,-164.8 617.94,-160.8 553.06,-160.8 553.06,-124.8 644.94,-124.8 644.94,-160.8"/>
<text text-anchor="middle" x="599" y="-138.6" font-family="Times,serif" font-size="14.00">UsersModule</text>
</g>
<!-- UsersModule&#45;&gt;AppModule -->
<g id="edge4" class="edge">
<title>UsersModule&#45;&gt;AppModule</title>
<path fill="none" stroke="black" d="M599,-160.91C599,-160.91 599,-179.79 599,-179.79"/>
<polygon fill="black" stroke="black" points="595.5,-179.79 599,-189.79 602.5,-179.79 595.5,-179.79"/>
</g>
<!-- AppService -->
<g id="node6" class="node">
<title>AppService</title>
<ellipse fill="#fdb462" stroke="black" cx="367" cy="-142.8" rx="56.75" ry="18"/>
<text text-anchor="middle" x="367" y="-138.6" font-family="Times,serif" font-size="14.00">AppService</text>
</g>
<!-- AppService&#45;&gt;AppModule -->
<g id="edge5" class="edge">
<title>AppService&#45;&gt;AppModule</title>
<path fill="none" stroke="black" d="M367,-161.08C367,-182.12 367,-213.8 367,-213.8 367,-213.8 547.26,-213.8 547.26,-213.8"/>
<polygon fill="black" stroke="black" points="547.26,-217.3 557.26,-213.8 547.26,-210.3 547.26,-217.3"/>
</g>
<!-- AuthService -->
<g id="node9" class="node">
<title>AuthService</title>
<ellipse fill="#fdb462" stroke="black" cx="433" cy="-66.8" rx="59.11" ry="18"/>
<text text-anchor="middle" x="433" y="-62.6" font-family="Times,serif" font-size="14.00">AuthService</text>
</g>
<!-- AuthService&#45;&gt;AuthModule -->
<g id="edge8" class="edge">
<title>AuthService&#45;&gt;AuthModule</title>
<path fill="none" stroke="black" d="M483.49,-76.43C483.49,-76.43 483.49,-114.55 483.49,-114.55"/>
<polygon fill="black" stroke="black" points="479.99,-114.55 483.49,-124.55 486.99,-114.55 479.99,-114.55"/>
</g>
<!-- JwtStrategy -->
<g id="node10" class="node">
<title>JwtStrategy</title>
<ellipse fill="#fdb462" stroke="black" cx="299" cy="-66.8" rx="56.77" ry="18"/>
<text text-anchor="middle" x="299" y="-62.6" font-family="Times,serif" font-size="14.00">JwtStrategy</text>
</g>
<!-- JwtStrategy&#45;&gt;AuthModule -->
<g id="edge9" class="edge">
<title>JwtStrategy&#45;&gt;AuthModule</title>
<path fill="none" stroke="black" d="M333,-81.32C333,-87.28 333,-92.8 333,-92.8 333,-92.8 474.67,-92.8 474.67,-92.8 474.67,-92.8 474.67,-114.75 474.67,-114.75"/>
<polygon fill="black" stroke="black" points="471.17,-114.75 474.67,-124.75 478.17,-114.75 471.17,-114.75"/>
</g>
<!-- UsersService -->
<g id="node11" class="node">
<title>UsersService</title>
<ellipse fill="#fdb462" stroke="black" cx="572" cy="-66.8" rx="61.97" ry="18"/>
<text text-anchor="middle" x="572" y="-62.6" font-family="Times,serif" font-size="14.00">UsersService</text>
</g>
<!-- UsersService&#45;&gt;AuthModule -->
<g id="edge10" class="edge">
<title>UsersService&#45;&gt;AuthModule</title>
<path fill="none" stroke="black" d="M522.9,-78.01C522.9,-78.01 522.9,-114.76 522.9,-114.76"/>
<polygon fill="black" stroke="black" points="519.4,-114.76 522.9,-124.76 526.4,-114.76 519.4,-114.76"/>
</g>
<!-- UsersService&#45;&gt;UsersModule -->
<g id="edge15" class="edge">
<title>UsersService&#45;&gt;UsersModule</title>
<path fill="none" stroke="black" d="M593.63,-84.05C593.63,-84.05 593.63,-114.56 593.63,-114.56"/>
<polygon fill="black" stroke="black" points="590.13,-114.56 593.63,-124.56 597.13,-114.56 590.13,-114.56"/>
</g>
<!-- CaslFactory -->
<g id="node13" class="node">
<title>CaslFactory</title>
<ellipse fill="#fdb462" stroke="black" cx="732" cy="-66.8" rx="57.91" ry="18"/>
<text text-anchor="middle" x="732" y="-62.6" font-family="Times,serif" font-size="14.00">CaslFactory</text>
</g>
<!-- CaslFactory&#45;&gt;CaslModule -->
<g id="edge12" class="edge">
<title>CaslFactory&#45;&gt;CaslModule</title>
<path fill="none" stroke="black" d="M698.6,-81.82C698.6,-81.82 698.6,-114.6 698.6,-114.6"/>
<polygon fill="black" stroke="black" points="695.1,-114.6 698.6,-124.6 702.1,-114.6 695.1,-114.6"/>
</g>
<!-- CaslFactory&#45;&gt;UsersModule -->
<g id="edge14" class="edge">
<title>CaslFactory&#45;&gt;UsersModule</title>
<path fill="none" stroke="black" d="M674.11,-66.8C655.39,-66.8 639.35,-66.8 639.35,-66.8 639.35,-66.8 639.35,-114.79 639.35,-114.79"/>
<polygon fill="black" stroke="black" points="635.85,-114.79 639.35,-124.79 642.85,-114.79 635.85,-114.79"/>
</g>
<!-- FolderService -->
<g id="node14" class="node">
<title>FolderService</title>
<ellipse fill="#fdb462" stroke="black" cx="1007" cy="-66.8" rx="65.41" ry="18"/>
<text text-anchor="middle" x="1007" y="-62.6" font-family="Times,serif" font-size="14.00">FolderService</text>
</g>
<!-- FolderService&#45;&gt;FoldersModule -->
<g id="edge13" class="edge">
<title>FolderService&#45;&gt;FoldersModule</title>
<path fill="none" stroke="black" d="M1007,-84.81C1007,-107.29 1007,-142.8 1007,-142.8 1007,-142.8 876.68,-142.8 876.68,-142.8"/>
<polygon fill="black" stroke="black" points="876.68,-139.3 866.68,-142.8 876.68,-146.3 876.68,-139.3"/>
</g>
</g>
</svg>
