<?xml version="1.0" encoding="UTF-8" standalone="no"?>
<!DOCTYPE svg PUBLIC "-//W3C//DTD SVG 1.1//EN"
 "http://www.w3.org/Graphics/SVG/1.1/DTD/svg11.dtd">
<!-- Generated by graphviz version 5.0.0 (20220707.1540)
 -->
<!-- Title: dependencies Pages: 1 -->
<svg width="613pt" height="174pt"
 viewBox="0.00 0.00 613.00 173.80" xmlns="http://www.w3.org/2000/svg" xmlns:xlink="http://www.w3.org/1999/xlink">
<g id="graph0" class="graph" transform="scale(1 1) rotate(0) translate(4 169.8)">
<title>dependencies</title>
<polygon fill="white" stroke="transparent" points="-4,4 -4,-169.8 609,-169.8 609,4 -4,4"/>
<text text-anchor="middle" x="302.5" y="-8.2" font-family="sans-serif" font-size="14.00">dependencies</text>
<g id="clust1" class="cluster">
<title>cluster_AppModule</title>
<polygon fill="none" stroke="black" stroke-dasharray="1,5" points="8,-32.8 8,-157.8 597,-157.8 597,-32.8 8,-32.8"/>
</g>
<g id="clust6" class="cluster">
<title>cluster_AppModule_providers</title>
<polygon fill="none" stroke="black" points="459,-40.8 459,-92.8 589,-92.8 589,-40.8 459,-40.8"/>
</g>
<g id="clust3" class="cluster">
<title>cluster_AppModule_imports</title>
<polygon fill="none" stroke="black" points="16,-40.8 16,-92.8 451,-92.8 451,-40.8 16,-40.8"/>
</g>
<!-- AuthModule -->
<g id="node1" class="node">
<title>AuthModule</title>
<polygon fill="#8dd3c7" stroke="black" points="442.55,-84.8 439.55,-88.8 418.55,-88.8 415.55,-84.8 355.45,-84.8 355.45,-48.8 442.55,-48.8 442.55,-84.8"/>
<text text-anchor="middle" x="399" y="-62.6" font-family="Times,serif" font-size="14.00">AuthModule</text>
</g>
<!-- AppModule -->
<g id="node5" class="node">
<title>AppModule</title>
<polygon fill="#8dd3c7" stroke="black" points="336.66,-149.8 333.66,-153.8 312.66,-153.8 309.66,-149.8 253.34,-149.8 253.34,-113.8 336.66,-113.8 336.66,-149.8"/>
<text text-anchor="middle" x="295" y="-127.6" font-family="Times,serif" font-size="14.00">AppModule</text>
</g>
<!-- AuthModule&#45;&gt;AppModule -->
<g id="edge1" class="edge">
<title>AuthModule&#45;&gt;AppModule</title>
<path fill="none" stroke="black" d="M399,-84.82C399,-102.17 399,-125.8 399,-125.8 399,-125.8 346.7,-125.8 346.7,-125.8"/>
<polygon fill="black" stroke="black" points="346.7,-122.3 336.7,-125.8 346.7,-129.3 346.7,-122.3"/>
</g>
<!-- CaslModule -->
<g id="node2" class="node">
<title>CaslModule</title>
<polygon fill="#8dd3c7" stroke="black" points="337.44,-84.8 334.44,-88.8 313.44,-88.8 310.44,-84.8 252.56,-84.8 252.56,-48.8 337.44,-48.8 337.44,-84.8"/>
<text text-anchor="middle" x="295" y="-62.6" font-family="Times,serif" font-size="14.00">CaslModule</text>
</g>
<!-- CaslModule&#45;&gt;AppModule -->
<g id="edge2" class="edge">
<title>CaslModule&#45;&gt;AppModule</title>
<path fill="none" stroke="black" d="M295,-84.91C295,-84.91 295,-103.79 295,-103.79"/>
<polygon fill="black" stroke="black" points="291.5,-103.79 295,-113.79 298.5,-103.79 291.5,-103.79"/>
</g>
<!-- FoldersModule -->
<g id="node3" class="node">
<title>FoldersModule</title>
<polygon fill="#8dd3c7" stroke="black" points="234.55,-84.8 231.55,-88.8 210.55,-88.8 207.55,-84.8 133.45,-84.8 133.45,-48.8 234.55,-48.8 234.55,-84.8"/>
<text text-anchor="middle" x="184" y="-62.6" font-family="Times,serif" font-size="14.00">FoldersModule</text>
</g>
<!-- FoldersModule&#45;&gt;AppModule -->
<g id="edge3" class="edge">
<title>FoldersModule&#45;&gt;AppModule</title>
<path fill="none" stroke="black" d="M184,-84.82C184,-102.17 184,-125.8 184,-125.8 184,-125.8 243.04,-125.8 243.04,-125.8"/>
<polygon fill="black" stroke="black" points="243.04,-129.3 253.04,-125.8 243.04,-122.3 243.04,-129.3"/>
</g>
<!-- UsersModule -->
<g id="node4" class="node">
<title>UsersModule</title>
<polygon fill="#8dd3c7" stroke="black" points="115.94,-84.8 112.94,-88.8 91.94,-88.8 88.94,-84.8 24.06,-84.8 24.06,-48.8 115.94,-48.8 115.94,-84.8"/>
<text text-anchor="middle" x="70" y="-62.6" font-family="Times,serif" font-size="14.00">UsersModule</text>
</g>
<!-- UsersModule&#45;&gt;AppModule -->
<g id="edge4" class="edge">
<title>UsersModule&#45;&gt;AppModule</title>
<path fill="none" stroke="black" d="M70,-85.08C70,-106.12 70,-137.8 70,-137.8 70,-137.8 243.21,-137.8 243.21,-137.8"/>
<polygon fill="black" stroke="black" points="243.21,-141.3 253.21,-137.8 243.21,-134.3 243.21,-141.3"/>
</g>
<!-- AppService -->
<g id="node6" class="node">
<title>AppService</title>
<ellipse fill="#fdb462" stroke="black" cx="524" cy="-66.8" rx="56.75" ry="18"/>
<text text-anchor="middle" x="524" y="-62.6" font-family="Times,serif" font-size="14.00">AppService</text>
</g>
<!-- AppService&#45;&gt;AppModule -->
<g id="edge5" class="edge">
<title>AppService&#45;&gt;AppModule</title>
<path fill="none" stroke="black" d="M524,-85.08C524,-106.12 524,-137.8 524,-137.8 524,-137.8 346.74,-137.8 346.74,-137.8"/>
<polygon fill="black" stroke="black" points="346.74,-134.3 336.74,-137.8 346.74,-141.3 346.74,-134.3"/>
</g>
</g>
</svg>
